<svg xmlns="http://www.w3.org/2000/svg" width="1600" height="1050" viewBox="0 0 1600 1050" role="img" aria-labelledby="title desc">
  <title id="title">Horloge disque de frein</title>
  <desc id="desc">Illustration libre de droit créée pour Pulse & Process. Horloge décorative inspirée d’un disque de frein.</desc>
  <defs>
    <linearGradient id="g" x1="0" y1="0" x2="1" y2="1">
      <stop offset="0" stop-color="#F59E0B" stop-opacity="0.98"/>
      <stop offset="1" stop-color="#0B1220" stop-opacity="0.92"/>
    </linearGradient>
    <radialGradient id="glow" cx="32%" cy="20%" r="70%">
      <stop offset="0" stop-color="#F59E0B" stop-opacity="0.38"/>
      <stop offset="0.55" stop-color="#F59E0B" stop-opacity="0.08"/>
      <stop offset="1" stop-color="#0B1220" stop-opacity="0"/>
    </radialGradient>
    <filter id="shadow" x="-20%" y="-20%" width="140%" height="140%">
      <feDropShadow dx="0" dy="28" stdDeviation="32" flood-color="#0B1220" flood-opacity="0.22"/>
    </filter>
    <pattern id="grid" width="64" height="64" patternUnits="userSpaceOnUse">
      <path d="M64 0H0V64" fill="none" stroke="#CBD5E1" stroke-opacity="0.35" stroke-width="1"/>
    </pattern>
  </defs>
  <rect width="1600" height="1050" rx="0" fill="#F8FAFC"/>
  <rect width="1600" height="1050" fill="url(#grid)" opacity="0.55"/>
  <circle cx="270" cy="170" r="420" fill="url(#glow)"/>
  
  <rect x="125" y="120" width="1350" height="740" rx="72" fill="#0B1220" filter="url(#shadow)"/>
  <circle cx="800" cy="475" r="300" fill="#111827" stroke="#334155" stroke-width="28"/>
  <circle cx="800" cy="475" r="224" fill="none" stroke="#64748B" stroke-width="20" opacity=".6"/>
  <circle cx="800" cy="475" r="74" fill="#F8FAFC"/>
  <circle cx="800" cy="475" r="33" fill="#F59E0B"/>
  <g fill="#F8FAFC" opacity=".92">
    <circle cx="800" cy="220" r="32"/><circle cx="1048" cy="475" r="32"/><circle cx="800" cy="730" r="32"/><circle cx="552" cy="475" r="32"/>
  </g>
  <line x1="800" y1="475" x2="800" y2="300" stroke="#F8FAFC" stroke-width="18" stroke-linecap="round"/>
  <line x1="800" y1="475" x2="930" y2="560" stroke="#F59E0B" stroke-width="16" stroke-linecap="round"/>
  <circle cx="800" cy="475" r="15" fill="#0B1220"/>
  <path d="M260 725c120-42 228-42 348 0" stroke="#1473E6" stroke-width="16" stroke-linecap="round" opacity=".85"/>
  <path d="M992 725c120-42 228-42 348 0" stroke="#1473E6" stroke-width="16" stroke-linecap="round" opacity=".85"/>

  <rect x="92" y="830" width="660" height="120" rx="34" fill="white" filter="url(#shadow)"/>
  <text x="135" y="878" font-family="Inter, Arial, sans-serif" font-size="24" font-weight="800" fill="#F59E0B" letter-spacing="3">CRAFT & CUSTOM</text>
  <text x="135" y="925" font-family="Inter, Arial, sans-serif" font-size="44" font-weight="900" fill="#0B1220" letter-spacing="-1.6">Horloges & pièces mécaniques</text>

</svg>