<svg xmlns="http://www.w3.org/2000/svg" width="1600" height="1050" viewBox="0 0 1600 1050" role="img" aria-labelledby="title desc">
  <title id="title">Détail horloge disque de frein</title>
  <desc id="desc">Illustration libre de droit créée pour Pulse & Process. Détails et finition d’une horloge.</desc>
  <defs>
    <linearGradient id="g" x1="0" y1="0" x2="1" y2="1">
      <stop offset="0" stop-color="#F59E0B" stop-opacity="0.98"/>
      <stop offset="1" stop-color="#0B1220" stop-opacity="0.92"/>
    </linearGradient>
    <radialGradient id="glow" cx="32%" cy="20%" r="70%">
      <stop offset="0" stop-color="#F59E0B" stop-opacity="0.38"/>
      <stop offset="0.55" stop-color="#F59E0B" stop-opacity="0.08"/>
      <stop offset="1" stop-color="#0B1220" stop-opacity="0"/>
    </radialGradient>
    <filter id="shadow" x="-20%" y="-20%" width="140%" height="140%">
      <feDropShadow dx="0" dy="28" stdDeviation="32" flood-color="#0B1220" flood-opacity="0.22"/>
    </filter>
    <pattern id="grid" width="64" height="64" patternUnits="userSpaceOnUse">
      <path d="M64 0H0V64" fill="none" stroke="#CBD5E1" stroke-opacity="0.35" stroke-width="1"/>
    </pattern>
  </defs>
  <rect width="1600" height="1050" rx="0" fill="#F8FAFC"/>
  <rect width="1600" height="1050" fill="url(#grid)" opacity="0.55"/>
  <circle cx="270" cy="170" r="420" fill="url(#glow)"/>
  
  <rect x="110" y="120" width="1380" height="760" rx="72" fill="#0B1220" filter="url(#shadow)"/>
  <circle cx="650" cy="500" r="285" fill="#111827" stroke="#475569" stroke-width="30"/>
  <circle cx="650" cy="500" r="96" fill="#F8FAFC"/>
  <circle cx="650" cy="500" r="28" fill="#F59E0B"/>
  <line x1="650" y1="500" x2="650" y2="340" stroke="#F8FAFC" stroke-width="18" stroke-linecap="round"/>
  <line x1="650" y1="500" x2="770" y2="570" stroke="#F59E0B" stroke-width="16" stroke-linecap="round"/>
  <g fill="#F8FAFC" opacity=".9"><circle cx="650" cy="255" r="28"/><circle cx="890" cy="500" r="28"/><circle cx="650" cy="745" r="28"/><circle cx="410" cy="500" r="28"/></g>
  <rect x="1010" y="260" width="270" height="450" rx="36" fill="#F8FAFC"/>
  <rect x="1060" y="340" width="170" height="22" rx="11" fill="#0B1220"/><rect x="1060" y="395" width="130" height="18" rx="9" fill="#64748B"/><rect x="1060" y="445" width="155" height="18" rx="9" fill="#64748B"/><rect x="1060" y="545" width="110" height="95" rx="22" fill="#F59E0B"/>

  <rect x="92" y="830" width="660" height="120" rx="34" fill="white" filter="url(#shadow)"/>
  <text x="135" y="878" font-family="Inter, Arial, sans-serif" font-size="24" font-weight="800" fill="#F59E0B" letter-spacing="3">CRAFT</text>
  <text x="135" y="925" font-family="Inter, Arial, sans-serif" font-size="44" font-weight="900" fill="#0B1220" letter-spacing="-1.6">Détail mécanique & finition</text>

</svg>