<svg xmlns="http://www.w3.org/2000/svg" width="1600" height="1050" viewBox="0 0 1600 1050" role="img" aria-labelledby="title desc">
  <title id="title">Cadre décoratif personnalisé</title>
  <desc id="desc">Illustration libre de droit créée pour Pulse & Process. Cadre et composition décorative.</desc>
  <defs>
    <linearGradient id="g" x1="0" y1="0" x2="1" y2="1">
      <stop offset="0" stop-color="#F59E0B" stop-opacity="0.98"/>
      <stop offset="1" stop-color="#0B1220" stop-opacity="0.92"/>
    </linearGradient>
    <radialGradient id="glow" cx="32%" cy="20%" r="70%">
      <stop offset="0" stop-color="#F59E0B" stop-opacity="0.38"/>
      <stop offset="0.55" stop-color="#F59E0B" stop-opacity="0.08"/>
      <stop offset="1" stop-color="#0B1220" stop-opacity="0"/>
    </radialGradient>
    <filter id="shadow" x="-20%" y="-20%" width="140%" height="140%">
      <feDropShadow dx="0" dy="28" stdDeviation="32" flood-color="#0B1220" flood-opacity="0.22"/>
    </filter>
    <pattern id="grid" width="64" height="64" patternUnits="userSpaceOnUse">
      <path d="M64 0H0V64" fill="none" stroke="#CBD5E1" stroke-opacity="0.35" stroke-width="1"/>
    </pattern>
  </defs>
  <rect width="1600" height="1050" rx="0" fill="#F8FAFC"/>
  <rect width="1600" height="1050" fill="url(#grid)" opacity="0.55"/>
  <circle cx="270" cy="170" r="420" fill="url(#glow)"/>
  
  <rect x="150" y="120" width="1300" height="760" rx="72" fill="#0B1220" filter="url(#shadow)"/>
  <rect x="350" y="230" width="900" height="520" rx="38" fill="#F8FAFC" stroke="#F59E0B" stroke-width="34"/>
  <rect x="430" y="310" width="740" height="360" rx="22" fill="#E2E8F0"/>
  <path d="M510 620L710 440l150 135 105-85 150 130" fill="none" stroke="#1473E6" stroke-width="18" stroke-linecap="round" stroke-linejoin="round"/>
  <circle cx="965" cy="405" r="58" fill="#F59E0B"/>
  <rect x="465" y="360" width="180" height="28" rx="14" fill="#0B1220" opacity=".85"/>
  <rect x="465" y="410" width="125" height="22" rx="11" fill="#64748B" opacity=".65"/>

  <rect x="92" y="830" width="660" height="120" rx="34" fill="white" filter="url(#shadow)"/>
  <text x="135" y="878" font-family="Inter, Arial, sans-serif" font-size="24" font-weight="800" fill="#F59E0B" letter-spacing="3">CRAFT</text>
  <text x="135" y="925" font-family="Inter, Arial, sans-serif" font-size="44" font-weight="900" fill="#0B1220" letter-spacing="-1.6">Cadres personnalisés</text>

</svg>