<svg xmlns="http://www.w3.org/2000/svg" width="1600" height="1050" viewBox="0 0 1600 1050" role="img" aria-labelledby="title desc">
  <title id="title">Tableau de bord digital</title>
  <desc id="desc">Illustration libre de droit créée pour Pulse & Process. Tableau de bord, indicateurs et automatisation.</desc>
  <defs>
    <linearGradient id="g" x1="0" y1="0" x2="1" y2="1">
      <stop offset="0" stop-color="#1473E6" stop-opacity="0.98"/>
      <stop offset="1" stop-color="#0B1220" stop-opacity="0.92"/>
    </linearGradient>
    <radialGradient id="glow" cx="32%" cy="20%" r="70%">
      <stop offset="0" stop-color="#1473E6" stop-opacity="0.38"/>
      <stop offset="0.55" stop-color="#1473E6" stop-opacity="0.08"/>
      <stop offset="1" stop-color="#0B1220" stop-opacity="0"/>
    </radialGradient>
    <filter id="shadow" x="-20%" y="-20%" width="140%" height="140%">
      <feDropShadow dx="0" dy="28" stdDeviation="32" flood-color="#0B1220" flood-opacity="0.22"/>
    </filter>
    <pattern id="grid" width="64" height="64" patternUnits="userSpaceOnUse">
      <path d="M64 0H0V64" fill="none" stroke="#CBD5E1" stroke-opacity="0.35" stroke-width="1"/>
    </pattern>
  </defs>
  <rect width="1600" height="1050" rx="0" fill="#F8FAFC"/>
  <rect width="1600" height="1050" fill="url(#grid)" opacity="0.55"/>
  <circle cx="270" cy="170" r="420" fill="url(#glow)"/>
  
  <rect x="150" y="130" width="1180" height="690" rx="54" fill="#0B1220" filter="url(#shadow)"/>
  <rect x="185" y="170" width="1110" height="620" rx="36" fill="#111827"/>
  <rect x="230" y="220" width="280" height="170" rx="28" fill="#FFFFFF" opacity="0.96"/>
  <rect x="550" y="220" width="280" height="170" rx="28" fill="#FFFFFF" opacity="0.96"/>
  <rect x="870" y="220" width="280" height="170" rx="28" fill="#FFFFFF" opacity="0.96"/>
  <text x="260" y="285" font-family="Inter, Arial" font-size="32" font-weight="900" fill="#0B1220">CA</text>
  <text x="260" y="340" font-family="Inter, Arial" font-size="58" font-weight="900" fill="#1473E6">+18%</text>
  <text x="580" y="285" font-family="Inter, Arial" font-size="32" font-weight="900" fill="#0B1220">Stock</text>
  <text x="580" y="340" font-family="Inter, Arial" font-size="58" font-weight="900" fill="#1473E6">OK</text>
  <text x="900" y="285" font-family="Inter, Arial" font-size="32" font-weight="900" fill="#0B1220">Factures</text>
  <text x="900" y="340" font-family="Inter, Arial" font-size="58" font-weight="900" fill="#1473E6">12</text>
  <rect x="230" y="445" width="605" height="285" rx="34" fill="#FFFFFF" opacity="0.96"/>
  <polyline points="280,660 360,590 455,620 540,520 635,555 735,475 795,505" fill="none" stroke="#1473E6" stroke-width="14" stroke-linecap="round" stroke-linejoin="round"/>
  <circle cx="360" cy="590" r="14" fill="#1473E6"/><circle cx="540" cy="520" r="14" fill="#1473E6"/><circle cx="735" cy="475" r="14" fill="#1473E6"/>
  <rect x="880" y="445" width="370" height="285" rx="34" fill="#FFFFFF" opacity="0.96"/>
  <rect x="930" y="645" width="46" height="45" rx="12" fill="#1473E6"/><rect x="1000" y="575" width="46" height="115" rx="12" fill="#1473E6"/><rect x="1070" y="520" width="46" height="170" rx="12" fill="#1473E6"/><rect x="1140" y="485" width="46" height="205" rx="12" fill="#1473E6"/>

  <rect x="92" y="830" width="660" height="120" rx="34" fill="white" filter="url(#shadow)"/>
  <text x="135" y="878" font-family="Inter, Arial, sans-serif" font-size="24" font-weight="800" fill="#1473E6" letter-spacing="3">DIGITAL & PROCESS</text>
  <text x="135" y="925" font-family="Inter, Arial, sans-serif" font-size="44" font-weight="900" fill="#0B1220" letter-spacing="-1.6">Tableaux de bord & automatisation</text>

</svg>