<svg xmlns="http://www.w3.org/2000/svg" width="1600" height="1050" viewBox="0 0 1600 1050" role="img" aria-labelledby="title desc">
  <title id="title">Système de sonorisation</title>
  <desc id="desc">Illustration libre de droit créée pour Pulse & Process. Enceintes et diffusion audio.</desc>
  <defs>
    <linearGradient id="g" x1="0" y1="0" x2="1" y2="1">
      <stop offset="0" stop-color="#1FB6FF" stop-opacity="0.98"/>
      <stop offset="1" stop-color="#0B1220" stop-opacity="0.92"/>
    </linearGradient>
    <radialGradient id="glow" cx="32%" cy="20%" r="70%">
      <stop offset="0" stop-color="#1FB6FF" stop-opacity="0.38"/>
      <stop offset="0.55" stop-color="#1FB6FF" stop-opacity="0.08"/>
      <stop offset="1" stop-color="#0B1220" stop-opacity="0"/>
    </radialGradient>
    <filter id="shadow" x="-20%" y="-20%" width="140%" height="140%">
      <feDropShadow dx="0" dy="28" stdDeviation="32" flood-color="#0B1220" flood-opacity="0.22"/>
    </filter>
    <pattern id="grid" width="64" height="64" patternUnits="userSpaceOnUse">
      <path d="M64 0H0V64" fill="none" stroke="#CBD5E1" stroke-opacity="0.35" stroke-width="1"/>
    </pattern>
  </defs>
  <rect width="1600" height="1050" rx="0" fill="#F8FAFC"/>
  <rect width="1600" height="1050" fill="url(#grid)" opacity="0.55"/>
  <circle cx="270" cy="170" r="420" fill="url(#glow)"/>
  
  <rect x="160" y="120" width="520" height="760" rx="54" fill="#0B1220" filter="url(#shadow)"/>
  <rect x="920" y="120" width="520" height="760" rx="54" fill="#0B1220" filter="url(#shadow)"/>
  <circle cx="420" cy="380" r="165" fill="#111827" stroke="#1FB6FF" stroke-width="18"/>
  <circle cx="420" cy="380" r="65" fill="#1FB6FF"/>
  <circle cx="1180" cy="380" r="165" fill="#111827" stroke="#1FB6FF" stroke-width="18"/>
  <circle cx="1180" cy="380" r="65" fill="#1FB6FF"/>
  <circle cx="420" cy="690" r="95" fill="#111827" stroke="#64748B" stroke-width="14"/>
  <circle cx="1180" cy="690" r="95" fill="#111827" stroke="#64748B" stroke-width="14"/>
  <path d="M700 220c150 90 190 420 0 620" stroke="#1FB6FF" stroke-width="16" fill="none" stroke-linecap="round" opacity=".55"/>
  <path d="M900 220c-150 90-190 420 0 620" stroke="#1FB6FF" stroke-width="16" fill="none" stroke-linecap="round" opacity=".55"/>

  <rect x="92" y="830" width="660" height="120" rx="34" fill="white" filter="url(#shadow)"/>
  <text x="135" y="878" font-family="Inter, Arial, sans-serif" font-size="24" font-weight="800" fill="#1FB6FF" letter-spacing="3">EVENT</text>
  <text x="135" y="925" font-family="Inter, Arial, sans-serif" font-size="44" font-weight="900" fill="#0B1220" letter-spacing="-1.6">Systèmes de sonorisation</text>

</svg>