<svg xmlns="http://www.w3.org/2000/svg" width="1600" height="1050" viewBox="0 0 1600 1050" role="img" aria-labelledby="title desc">
  <title id="title">Installation technique événementielle</title>
  <desc id="desc">Illustration libre de droit créée pour Pulse & Process. Planification et installation technique.</desc>
  <defs>
    <linearGradient id="g" x1="0" y1="0" x2="1" y2="1">
      <stop offset="0" stop-color="#1FB6FF" stop-opacity="0.98"/>
      <stop offset="1" stop-color="#0B1220" stop-opacity="0.92"/>
    </linearGradient>
    <radialGradient id="glow" cx="32%" cy="20%" r="70%">
      <stop offset="0" stop-color="#1FB6FF" stop-opacity="0.38"/>
      <stop offset="0.55" stop-color="#1FB6FF" stop-opacity="0.08"/>
      <stop offset="1" stop-color="#0B1220" stop-opacity="0"/>
    </radialGradient>
    <filter id="shadow" x="-20%" y="-20%" width="140%" height="140%">
      <feDropShadow dx="0" dy="28" stdDeviation="32" flood-color="#0B1220" flood-opacity="0.22"/>
    </filter>
    <pattern id="grid" width="64" height="64" patternUnits="userSpaceOnUse">
      <path d="M64 0H0V64" fill="none" stroke="#CBD5E1" stroke-opacity="0.35" stroke-width="1"/>
    </pattern>
  </defs>
  <rect width="1600" height="1050" rx="0" fill="#F8FAFC"/>
  <rect width="1600" height="1050" fill="url(#grid)" opacity="0.55"/>
  <circle cx="270" cy="170" r="420" fill="url(#glow)"/>
  
  <rect x="115" y="120" width="1370" height="760" rx="72" fill="#0B1220" filter="url(#shadow)"/>
  <rect x="255" y="600" width="1090" height="120" rx="28" fill="#111827" stroke="#334155" stroke-width="10"/>
  <rect x="360" y="300" width="250" height="290" rx="34" fill="#111827" stroke="#1FB6FF" stroke-width="12"/>
  <rect x="990" y="300" width="250" height="290" rx="34" fill="#111827" stroke="#1FB6FF" stroke-width="12"/>
  <rect x="665" y="390" width="270" height="200" rx="34" fill="#FFFFFF"/>
  <rect x="700" y="425" width="200" height="18" rx="9" fill="#1473E6"/><rect x="700" y="468" width="150" height="18" rx="9" fill="#CBD5E1"/><rect x="700" y="512" width="182" height="18" rx="9" fill="#CBD5E1"/>
  <path d="M610 445h55M935 445h55M485 590v120M1115 590v120" stroke="#F8FAFC" stroke-width="14" stroke-linecap="round"/>
  <circle cx="485" cy="435" r="64" fill="#111827" stroke="#7C3AED" stroke-width="14"/><circle cx="1115" cy="435" r="64" fill="#111827" stroke="#7C3AED" stroke-width="14"/>

  <rect x="92" y="830" width="660" height="120" rx="34" fill="white" filter="url(#shadow)"/>
  <text x="135" y="878" font-family="Inter, Arial, sans-serif" font-size="24" font-weight="800" fill="#1FB6FF" letter-spacing="3">EVENT</text>
  <text x="135" y="925" font-family="Inter, Arial, sans-serif" font-size="44" font-weight="900" fill="#0B1220" letter-spacing="-1.6">Installation & exploitation</text>

</svg>