<svg xmlns="http://www.w3.org/2000/svg" width="1600" height="1050" viewBox="0 0 1600 1050" role="img" aria-labelledby="title desc">
  <title id="title">Éclairage événementiel</title>
  <desc id="desc">Illustration libre de droit créée pour Pulse & Process. Projecteurs et effets lumineux.</desc>
  <defs>
    <linearGradient id="g" x1="0" y1="0" x2="1" y2="1">
      <stop offset="0" stop-color="#7C3AED" stop-opacity="0.98"/>
      <stop offset="1" stop-color="#0B1220" stop-opacity="0.92"/>
    </linearGradient>
    <radialGradient id="glow" cx="32%" cy="20%" r="70%">
      <stop offset="0" stop-color="#7C3AED" stop-opacity="0.38"/>
      <stop offset="0.55" stop-color="#7C3AED" stop-opacity="0.08"/>
      <stop offset="1" stop-color="#0B1220" stop-opacity="0"/>
    </radialGradient>
    <filter id="shadow" x="-20%" y="-20%" width="140%" height="140%">
      <feDropShadow dx="0" dy="28" stdDeviation="32" flood-color="#0B1220" flood-opacity="0.22"/>
    </filter>
    <pattern id="grid" width="64" height="64" patternUnits="userSpaceOnUse">
      <path d="M64 0H0V64" fill="none" stroke="#CBD5E1" stroke-opacity="0.35" stroke-width="1"/>
    </pattern>
  </defs>
  <rect width="1600" height="1050" rx="0" fill="#F8FAFC"/>
  <rect width="1600" height="1050" fill="url(#grid)" opacity="0.55"/>
  <circle cx="270" cy="170" r="420" fill="url(#glow)"/>
  
  <rect x="120" y="120" width="1360" height="750" rx="70" fill="#0B1220" filter="url(#shadow)"/>
  <path d="M260 240h1080" stroke="#F8FAFC" stroke-width="20" stroke-linecap="round" opacity=".85"/>
  <g fill="#111827" stroke="#94A3B8" stroke-width="10">
    <rect x="350" y="260" width="170" height="120" rx="28"/>
    <rect x="715" y="260" width="170" height="120" rx="28"/>
    <rect x="1080" y="260" width="170" height="120" rx="28"/>
  </g>
  <path d="M435 380L250 785" stroke="#1FB6FF" stroke-width="76" stroke-linecap="round" opacity=".44"/>
  <path d="M800 380L800 810" stroke="#7C3AED" stroke-width="100" stroke-linecap="round" opacity=".36"/>
  <path d="M1165 380l190 405" stroke="#1FB6FF" stroke-width="76" stroke-linecap="round" opacity=".44"/>
  <circle cx="435" cy="320" r="40" fill="#1FB6FF"/><circle cx="800" cy="320" r="40" fill="#7C3AED"/><circle cx="1165" cy="320" r="40" fill="#1FB6FF"/>

  <rect x="92" y="830" width="660" height="120" rx="34" fill="white" filter="url(#shadow)"/>
  <text x="135" y="878" font-family="Inter, Arial, sans-serif" font-size="24" font-weight="800" fill="#7C3AED" letter-spacing="3">EVENT</text>
  <text x="135" y="925" font-family="Inter, Arial, sans-serif" font-size="44" font-weight="900" fill="#0B1220" letter-spacing="-1.6">Jeux de lumière & ambiance</text>

</svg>