<svg xmlns="http://www.w3.org/2000/svg" width="1600" height="1050" viewBox="0 0 1600 1050" role="img" aria-labelledby="title desc">
  <title id="title">Sonorisation et éclairage</title>
  <desc id="desc">Illustration libre de droit créée pour Pulse & Process. Système son et éclairage événementiel.</desc>
  <defs>
    <linearGradient id="g" x1="0" y1="0" x2="1" y2="1">
      <stop offset="0" stop-color="#1FB6FF" stop-opacity="0.98"/>
      <stop offset="1" stop-color="#0B1220" stop-opacity="0.92"/>
    </linearGradient>
    <radialGradient id="glow" cx="32%" cy="20%" r="70%">
      <stop offset="0" stop-color="#1FB6FF" stop-opacity="0.38"/>
      <stop offset="0.55" stop-color="#1FB6FF" stop-opacity="0.08"/>
      <stop offset="1" stop-color="#0B1220" stop-opacity="0"/>
    </radialGradient>
    <filter id="shadow" x="-20%" y="-20%" width="140%" height="140%">
      <feDropShadow dx="0" dy="28" stdDeviation="32" flood-color="#0B1220" flood-opacity="0.22"/>
    </filter>
    <pattern id="grid" width="64" height="64" patternUnits="userSpaceOnUse">
      <path d="M64 0H0V64" fill="none" stroke="#CBD5E1" stroke-opacity="0.35" stroke-width="1"/>
    </pattern>
  </defs>
  <rect width="1600" height="1050" rx="0" fill="#F8FAFC"/>
  <rect width="1600" height="1050" fill="url(#grid)" opacity="0.55"/>
  <circle cx="270" cy="170" r="420" fill="url(#glow)"/>
  
  <rect x="120" y="110" width="1360" height="760" rx="70" fill="#0B1220" filter="url(#shadow)"/>
  <circle cx="340" cy="545" r="205" fill="#111827" stroke="#263246" stroke-width="18"/>
  <circle cx="340" cy="545" r="112" fill="#0B1220" stroke="#1FB6FF" stroke-width="16"/>
  <circle cx="340" cy="545" r="42" fill="#1FB6FF"/>
  <circle cx="1260" cy="545" r="205" fill="#111827" stroke="#263246" stroke-width="18"/>
  <circle cx="1260" cy="545" r="112" fill="#0B1220" stroke="#7C3AED" stroke-width="16"/>
  <circle cx="1260" cy="545" r="42" fill="#7C3AED"/>
  <path d="M665 735V340c0-52 42-94 94-94h82c52 0 94 42 94 94v395" fill="none" stroke="#F8FAFC" stroke-width="24" stroke-linecap="round"/>
  <path d="M735 735V390h130v345" fill="none" stroke="#1FB6FF" stroke-width="18" stroke-linecap="round"/>
  <path d="M640 210L425 395" stroke="#1FB6FF" stroke-width="16" stroke-linecap="round" opacity=".85"/>
  <path d="M960 210l220 185" stroke="#7C3AED" stroke-width="16" stroke-linecap="round" opacity=".85"/>
  <path d="M810 220v210" stroke="#FFFFFF" stroke-width="14" stroke-linecap="round" opacity=".88"/>
  <circle cx="810" cy="170" r="42" fill="#FFFFFF"/>
  <circle cx="640" cy="210" r="30" fill="#1FB6FF"/><circle cx="960" cy="210" r="30" fill="#7C3AED"/>

  <rect x="92" y="830" width="660" height="120" rx="34" fill="white" filter="url(#shadow)"/>
  <text x="135" y="878" font-family="Inter, Arial, sans-serif" font-size="24" font-weight="800" fill="#1FB6FF" letter-spacing="3">EVENT & SOUND</text>
  <text x="135" y="925" font-family="Inter, Arial, sans-serif" font-size="44" font-weight="900" fill="#0B1220" letter-spacing="-1.6">Sonorisation & éclairage</text>

</svg>