<svg xmlns="http://www.w3.org/2000/svg" viewBox="0 0 1200 760" role="img" aria-label="Simulation d'intégration d'écrans LED transparents sur vitrine">
<defs>
<linearGradient id="g" x1="0" x2="1" y1="0" y2="1"><stop stop-color="#09111f"/><stop offset="1" stop-color="#14213b"/></linearGradient>
<linearGradient id="b" x1="0" x2="1"><stop stop-color="#38bdf8"/><stop offset="1" stop-color="#fbbf24"/></linearGradient>
<filter id="glow"><feGaussianBlur stdDeviation="5" result="b"/><feMerge><feMergeNode in="b"/><feMergeNode in="SourceGraphic"/></feMerge></filter>
</defs>
<rect width="1200" height="760" rx="46" fill="url(#g)"/>
<rect x="96" y="126" width="1008" height="508" rx="22" fill="#07101d" stroke="#294058" stroke-width="4"/>
<rect x="138" y="168" width="438" height="424" rx="14" fill="#dbeafe" opacity=".10" stroke="#86b8d8"/>
<rect x="624" y="168" width="438" height="424" rx="14" fill="#dbeafe" opacity=".10" stroke="#86b8d8"/>
<line x1="600" y1="132" x2="600" y2="635" stroke="#294058" stroke-width="8"/>
<g opacity=".35">
<circle cx="240" cy="250" r="4" fill="#38bdf8"/><circle cx="275" cy="250" r="4" fill="#38bdf8"/><circle cx="310" cy="250" r="4" fill="#38bdf8"/><circle cx="345" cy="250" r="4" fill="#38bdf8"/><circle cx="380" cy="250" r="4" fill="#38bdf8"/><circle cx="415" cy="250" r="4" fill="#38bdf8"/>
</g>
<g filter="url(#glow)">
<path d="M712 284h214" stroke="url(#b)" stroke-width="10" stroke-linecap="round"/>
<path d="M712 334h150" stroke="#38bdf8" stroke-width="8" stroke-linecap="round" opacity=".9"/>
<path d="M712 384h248" stroke="#fbbf24" stroke-width="8" stroke-linecap="round" opacity=".95"/>
<rect x="710" y="428" width="172" height="54" rx="27" fill="#38bdf8" opacity=".95"/>
</g>
<text x="168" y="492" fill="#f8fafc" font-family="Arial, sans-serif" font-size="54" font-weight="800">Vitrine LED</text>
<text x="170" y="542" fill="#a8b3c7" font-family="Arial, sans-serif" font-size="26">communication dynamique · magasin · showroom</text>
<rect x="120" y="650" width="960" height="6" rx="3" fill="#26384d"/>
</svg>