<svg xmlns="http://www.w3.org/2000/svg" viewBox="0 0 900 650">
  <defs><linearGradient id="b" x1="0" x2="1"><stop stop-color="#38bdf8"/><stop offset="1" stop-color="#a5f3fc"/></linearGradient></defs>
  <rect width="900" height="650" rx="38" fill="#060b14"/>
  <rect x="72" y="76" width="756" height="498" rx="34" fill="#0f172a" stroke="rgba(255,255,255,.13)"/>
  <text x="116" y="134" fill="#f8fafc" font-family="Inter,Arial" font-weight="800" font-size="30">Tableau de bord opérationnel</text>
  <text x="116" y="170" fill="#94a3b8" font-family="Inter,Arial" font-size="18">Suivi stock · planning · facturation · indicateurs</text>
  <g transform="translate(116 220)">
    <rect width="160" height="100" rx="18" fill="rgba(56,189,248,.12)" stroke="rgba(56,189,248,.32)"/><text x="22" y="42" fill="#94a3b8" font-family="Inter,Arial" font-size="15">CA mensuel</text><text x="22" y="76" fill="#f8fafc" font-family="Inter,Arial" font-weight="900" font-size="30">4 820 €</text>
  </g>
  <g transform="translate(300 220)">
    <rect width="160" height="100" rx="18" fill="rgba(255,255,255,.055)" stroke="rgba(255,255,255,.12)"/><text x="22" y="42" fill="#94a3b8" font-family="Inter,Arial" font-size="15">En attente</text><text x="22" y="76" fill="#f8fafc" font-family="Inter,Arial" font-weight="900" font-size="30">7</text>
  </g>
  <g transform="translate(484 220)">
    <rect width="160" height="100" rx="18" fill="rgba(255,255,255,.055)" stroke="rgba(255,255,255,.12)"/><text x="22" y="42" fill="#94a3b8" font-family="Inter,Arial" font-size="15">Stock critique</text><text x="22" y="76" fill="#fbbf24" font-family="Inter,Arial" font-weight="900" font-size="30">3</text>
  </g>
  <g transform="translate(116 360)">
    <rect width="528" height="150" rx="22" fill="#0b1220" stroke="rgba(255,255,255,.12)"/>
    <path d="M36 110V88l70-18 70 20 70-52 70 35 70-62 70 29" fill="none" stroke="url(#b)" stroke-width="7" stroke-linecap="round" stroke-linejoin="round"/>
    <path d="M36 118H492" stroke="#334155" stroke-width="2"/>
  </g>
  <g transform="translate(690 216)">
    <rect width="92" height="294" rx="22" fill="#0b1220" stroke="rgba(255,255,255,.12)"/>
    <rect x="24" y="38" width="44" height="190" rx="16" fill="url(#b)" opacity=".88"/>
    <text x="26" y="260" fill="#94a3b8" font-family="Inter,Arial" font-size="13">Synthèse</text>
  </g>
</svg>
