<svg xmlns="http://www.w3.org/2000/svg" viewBox="0 0 1200 760" role="img" aria-label="Illustration flux et changements de série"><defs><linearGradient id="b" x1="0" x2="1"><stop stop-color="#38bdf8"/><stop offset="1" stop-color="#a5f3fc"/></linearGradient></defs><rect width="1200" height="760" rx="44" fill="#f8fafc"/><rect x="70" y="90" width="1060" height="580" rx="36" fill="#e9eef5" stroke="#cbd5e1"/><text x="100" y="150" fill="#0f172a" font-family="Inter,Arial" font-size="38" font-weight="800">Cartographie de flux</text><text x="100" y="198" fill="#475569" font-family="Inter,Arial" font-size="24">Avant / après — déplacements, attentes, changements</text><g stroke="#0f172a" stroke-width="4"><rect x="130" y="285" width="190" height="110" rx="18" fill="#fff"/><rect x="505" y="285" width="190" height="110" rx="18" fill="#fff"/><rect x="880" y="285" width="190" height="110" rx="18" fill="#fff"/><rect x="315" y="510" width="220" height="100" rx="18" fill="#fff"/><rect x="665" y="510" width="220" height="100" rx="18" fill="#fff"/></g><g fill="#0f172a" font-family="Inter,Arial" font-weight="700" font-size="26"><text x="174" y="350">Poste A</text><text x="552" y="350">Réglage</text><text x="925" y="350">Poste B</text><text x="350" y="572">Prépa ext.</text><text x="702" y="572">Contrôle</text></g><path d="M320 340 C400 235 430 235 505 340" fill="none" stroke="url(#b)" stroke-width="12" stroke-linecap="round"/><path d="M695 340 C780 235 800 235 880 340" fill="none" stroke="url(#b)" stroke-width="12" stroke-linecap="round"/><path d="M425 510 C455 455 535 420 600 395" fill="none" stroke="#0ea5e9" stroke-width="10" stroke-linecap="round" stroke-dasharray="18 16"/><path d="M775 510 C745 455 665 420 600 395" fill="none" stroke="#0ea5e9" stroke-width="10" stroke-linecap="round" stroke-dasharray="18 16"/><g fill="#0ea5e9"><circle cx="600" cy="395" r="14"/><circle cx="505" cy="340" r="10"/><circle cx="880" cy="340" r="10"/></g></svg>