<svg xmlns="http://www.w3.org/2000/svg" viewBox="0 0 1200 760" role="img" aria-label="Illustration tableau de bord Process"><defs><linearGradient id="g" x1="0" x2="1"><stop stop-color="#0ea5e9"/><stop offset="1" stop-color="#38bdf8"/></linearGradient><filter id="glow" x="-20%" y="-20%" width="140%" height="140%"><feGaussianBlur stdDeviation="8" result="b"/><feMerge><feMergeNode in="b"/><feMergeNode in="SourceGraphic"/></feMerge></filter></defs><rect width="1200" height="760" rx="44" fill="#07111f"/><path d="M0 90h1200" stroke="#1e293b"/><circle cx="64" cy="48" r="10" fill="#ef4444"/><circle cx="100" cy="48" r="10" fill="#f59e0b"/><circle cx="136" cy="48" r="10" fill="#22c55e"/><rect x="70" y="150" width="330" height="190" rx="26" fill="#0f172a" stroke="#243244"/><rect x="440" y="150" width="330" height="190" rx="26" fill="#0f172a" stroke="#243244"/><rect x="810" y="150" width="320" height="190" rx="26" fill="#0f172a" stroke="#243244"/><text x="105" y="205" fill="#94a3b8" font-family="Inter,Arial" font-size="28">Temps gagné</text><text x="105" y="282" fill="#f8fafc" font-family="Inter,Arial" font-size="70" font-weight="800">-18%</text><text x="475" y="205" fill="#94a3b8" font-family="Inter,Arial" font-size="28">Actions ouvertes</text><text x="475" y="282" fill="#f8fafc" font-family="Inter,Arial" font-size="70" font-weight="800">12</text><text x="845" y="205" fill="#94a3b8" font-family="Inter,Arial" font-size="28">Priorité</text><text x="845" y="282" fill="#38bdf8" font-family="Inter,Arial" font-size="58" font-weight="800">Flux</text><rect x="70" y="390" width="1060" height="290" rx="32" fill="#0f172a" stroke="#243244"/><polyline points="120,610 220,560 320,575 420,500 520,525 620,445 720,485 820,420 930,455 1070,395" fill="none" stroke="url(#g)" stroke-width="10" stroke-linecap="round" filter="url(#glow)"/><g fill="#38bdf8"><circle cx="120" cy="610" r="10"/><circle cx="420" cy="500" r="10"/><circle cx="620" cy="445" r="10"/><circle cx="820" cy="420" r="10"/><circle cx="1070" cy="395" r="10"/></g><text x="105" y="440" fill="#e2e8f0" font-family="Inter,Arial" font-size="32" font-weight="700">Suivi d'amélioration terrain</text></svg>